<?xml version="1.0" standalone="no"?>
<!DOCTYPE svg PUBLIC "-//W3C//DTD SVG 20010904//EN"
 "http://www.w3.org/TR/2001/REC-SVG-20010904/DTD/svg10.dtd">
<svg version="1.0" xmlns="http://www.w3.org/2000/svg"
 width="90.000000pt" height="90.000000pt" viewBox="0 0 90.000000 90.000000"
 preserveAspectRatio="xMidYMid meet">
<metadata>
Created by potrace 1.14, written by Peter Selinger 2001-2017
</metadata>
<g transform="translate(0.000000,90.000000) scale(0.100000,-0.100000)"
fill="#000000" stroke="none">
<path d="M519 700 c-39 -20 -65 -47 -56 -56 3 -4 30 5 58 20 77 38 142 33 208
-16 28 -21 45 -15 31 12 -29 54 -170 78 -241 40z"/>
<path d="M585 658 c-54 -12 -94 -43 -78 -59 10 -10 16 -9 31 4 37 34 113 34
147 1 9 -9 23 -13 32 -10 15 6 15 9 -3 26 -33 33 -84 48 -129 38z"/>
<path d="M559 581 c-22 -18 -23 -20 -6 -27 10 -3 23 -2 30 5 14 14 54 15 62 1
10 -16 35 -12 35 5 0 35 -85 46 -121 16z"/>
<path d="M591 533 c-11 -7 -27 -34 -37 -60 -10 -27 -22 -51 -27 -54 -5 -4 -30
-6 -55 -5 -42 1 -48 4 -62 32 -15 31 -50 72 -50 58 0 -3 -7 -1 -15 6 -18 15
-86 6 -119 -15 -25 -17 -57 -58 -60 -79 -1 -6 -4 -15 -7 -21 -8 -13 -4 -64 7
-90 29 -71 100 -77 128 -11 3 6 15 -1 29 -18 14 -16 29 -26 35 -22 7 4 6 -6
-1 -29 -9 -31 -8 -38 10 -56 15 -15 27 -18 47 -13 31 7 61 47 50 65 -4 8 -3 9
4 5 7 -4 12 -1 12 7 0 31 29 39 138 40 97 0 112 3 136 22 l28 22 -28 44 c-33
50 -52 68 -74 69 -10 0 -16 11 -16 30 -2 42 -22 87 -40 87 -8 0 -23 -6 -33
-14z m-253 -89 c-9 -10 -21 -13 -29 -8 -9 5 -8 9 7 15 31 12 39 10 22 -7z
m-99 -96 c-6 -10 -7 -23 -4 -28 3 -5 -1 -7 -9 -4 -11 4 -12 12 -5 37 5 18 9
34 9 37 0 3 4 -2 9 -9 6 -9 6 -22 0 -33z"/>
</g>
</svg>
